<svg xmlns="http://www.w3.org/2000/svg" viewBox="0 0 33.334 100"><path d="M19.445 41.667l11.11-11.111c2.778-2.778 2.778-2.778 2.778-13.889l-11.111 11.11c-2.777 2.779-2.777 2.779-2.777 13.89zM33.334 0L22.223 11.111c-2.777 2.777-2.777 2.777-2.777 13.889l11.11-11.111c2.778-2.778 2.778-2.778 2.778-13.889zM13.89 41.667c0-11.111 0-11.111-2.778-13.89L0 16.667c0 11.11 0 11.11 2.778 13.889L13.89 41.667zM19.445 58.333l11.11-11.11c2.778-2.778 2.778-2.778 2.778-13.89l-11.11 11.111c-2.778 2.779-2.778 2.779-2.778 13.889zM13.89 58.333c0-11.11 0-11.11-2.778-13.889L0 33.333c0 11.111 0 11.111 2.778 13.89l11.112 11.11zM19.445 75l11.11-11.111c2.778-2.777 2.778-2.777 2.778-13.889l-11.11 11.111c-2.778 2.778-2.778 2.778-2.778 13.889zM13.89 75c0-11.111 0-11.111-2.778-13.889L0 50c0 11.111 0 11.111 2.778 13.889L13.89 75zM13.89 25c0-11.111 0-11.111-2.778-13.889L0 0c0 11.111 0 11.111 2.778 13.889L13.89 25z" fill="#397a38"/><path d="M16.667 83.333L0 66.667c0 11.11 0 11.11 2.778 13.889L13.89 91.667V100h5.556v-8.333l11.11-11.111c2.778-2.778 2.778-2.778 2.778-13.889L16.667 83.333z" fill="#397a38"/></svg>