<svg xmlns="http://www.w3.org/2000/svg" viewBox="0 0 100 125"><g fill="#3e863d"><path d="M53.6 20s-1.9.9-2.4 2.7c-.5 1.8.7 3.6.7 3.6s1.9-.9 2.4-2.7-.7-3.6-.7-3.6zm3.8 5.1s-2.3.1-3.5 1.7c-1.2 1.6-.7 3.8-.7 3.8s2.3-.1 3.5-1.7c1.2-1.6.7-3.8.7-3.8zm-1.8 6.8s-2.4.3-3.6 2.1c-1.2 1.8-.5 4.1-.5 4.1s2.4-.3 3.6-2.1c1.2-1.7.5-4.1.5-4.1zm-.9 7.6S52.1 40 51 42s-.2 4.4-.2 4.4 2.6-.5 3.7-2.5.2-4.4.2-4.4zm-.2 7.8s-2.7.8-3.7 3S51 55 51 55s2.7-.8 3.7-3-.2-4.7-.2-4.7zm1.4 8.2s-2.8 1-3.7 3.4c-.9 2.4.5 5 .5 5s2.8-1 3.7-3.4c.9-2.4-.5-5-.5-5zm-8.4-31.7s1.9 1.2 2.2 3.2-1.2 3.7-1.2 3.7-1.9-1.2-2.2-3.2 1.2-3.7 1.2-3.7zm-2.3 7.1s2.2 1.1 2.7 3.2-1 4.1-1 4.1-2.2-1.1-2.7-3.2 1-4.1 1-4.1zm-1.6 7.9s2.4 1 3.1 3.2-.6 4.4-.6 4.4-2.4-1-3.1-3.2c-.8-2.1.6-4.4.6-4.4zm-.5 8.5s2.7.8 3.6 3-.2 4.7-.2 4.7-2.7-.8-3.6-3c-1-2.2.2-4.7.2-4.7zm.1 9.1s2.9.4 4.3 2.5.6 5 .6 5-2.9-.4-4.3-2.5c-1.5-2.2-.6-5-.6-5z"/><path d="M56.8 80c-.2 0-.4-.1-.5-.3-.6-1.1-1.3-2.2-1.8-3.4-4.4-8.8-6.7-18.3-6.7-28.2 0-7.1 1.2-14 3.5-20.6.1-.3.4-.5.7-.4.3.1.5.4.4.7-2.3 6.5-3.4 13.4-3.4 20.3 0 9.7 2.2 19.1 6.5 27.7l1.8 3.3c.2.3.1.6-.2.8-.1.1-.2.1-.3.1z"/></g></svg>