<svg xmlns="http://www.w3.org/2000/svg" viewBox="0 0 100 125"><path d="M73.604 82.019c-.129 0-.259-.022-.386-.07-11.573-4.327-18.016-16.133-18.632-34.143-.458-13.392 2.484-25.696 2.513-25.818a1.104 1.104 0 0 1 2.143.519c-.115.476-11.221 47.667 14.748 57.376a1.103 1.103 0 0 1-.386 2.136z" fill="#3e863d"/><path d="M64.879 84.153c-8.323 0-16.725-4.066-24.715-12.048-8.126-8.118-12.904-17.275-13.103-17.661a1.104 1.104 0 0 1 1.959-1.013c.188.364 19.087 36.209 44.205 27.001a1.102 1.102 0 1 1 .76 2.07c-3.008 1.103-6.052 1.651-9.106 1.651zM56.899 20.065s-6.364-1.855 2.078-12.361c0 0 9.257 13.182-2.078 12.361z" fill="#3e863d"/><path d="M60.165 25.813s-2.836-5.992 10.626-6.649c0 .001-3.717 15.673-10.626 6.649z" fill="#3e863d"/><path d="M58.752 36.145s-2.836-5.992 10.626-6.649c0 .001-3.717 15.673-10.626 6.649zM58.008 47.499s-2.836-5.992 10.626-6.649c-.001 0-3.718 15.673-10.626 6.649zM54.963 25.694s3.594-5.571-9.666-7.979c0 0 1.638 16.024 9.666 7.979z" fill="#3e863d"/><path d="M53.551 36.026s3.594-5.571-9.666-7.979c-.001 0 1.638 16.023 9.666 7.979zM53.541 47.38s3.594-5.571-9.666-7.979c0-.001 1.638 16.023 9.666 7.979zM25.05 52.06s-6.237 2.248-5.599-11.215c.001 0 15.244 5.204 5.599 11.215zM31.81 54.783s-5.82-3.174 4.674-11.63c-.001-.001 6.223 14.856-4.674 11.63z" fill="#3e863d"/><path d="M37.486 63.23s-5.82-3.174 4.674-11.63c0 0 6.224 14.856-4.674 11.63zM44.305 71.375s-5.82-3.174 4.674-11.63c0 0 6.223 14.856-4.674 11.63zM26.8 57.749s-.375-7.354-12.511-1.493c0 .001 10.759 12.722 12.511 1.493z" fill="#3e863d"/><path d="M32.477 66.197s-.375-6.619-12.511-.758c0 0 10.759 11.987 12.511.758zM40.625 74.644s-.375-6.619-12.511-.758c-.001 0 10.759 11.987 12.511.758z" fill="#3e863d"/></svg>