<?xml version="1.0" encoding="utf-8"?>
<!-- Generator: Adobe Illustrator 16.0.3, SVG Export Plug-In . SVG Version: 6.00 Build 0)  -->
<!DOCTYPE svg PUBLIC "-//W3C//DTD SVG 1.1//EN" "http://www.w3.org/Graphics/SVG/1.1/DTD/svg11.dtd">
<svg version="1.1" id="Layer_1" xmlns="http://www.w3.org/2000/svg" xmlns:xlink="http://www.w3.org/1999/xlink" x="0px" y="0px"
	 width="24.963px" height="24.963px" viewBox="3.519 3.804 24.963 24.963" enable-background="new 3.519 3.804 24.963 24.963"
	 xml:space="preserve">
<path fill="#FFFFFF" d="M14.96,23.566V6.925c0-0.152-0.049-0.276-0.146-0.374c-0.097-0.098-0.222-0.146-0.374-0.146H6.639
	c-0.152,0-0.276,0.049-0.374,0.146C6.167,6.648,6.119,6.773,6.119,6.925v16.642c0,0.152,0.049,0.276,0.146,0.375
	c0.097,0.098,0.222,0.146,0.374,0.146h7.801c0.152,0,0.276-0.049,0.374-0.146C14.912,23.844,14.96,23.719,14.96,23.566z
	 M25.881,17.326V6.925c0-0.152-0.049-0.276-0.146-0.374c-0.096-0.098-0.221-0.146-0.373-0.146h-7.801
	c-0.152,0-0.276,0.049-0.375,0.146c-0.098,0.097-0.146,0.222-0.146,0.374v10.401c0,0.152,0.049,0.275,0.146,0.374
	c0.098,0.098,0.223,0.146,0.375,0.146h7.801c0.152,0,0.275-0.049,0.373-0.146C25.833,17.604,25.881,17.479,25.881,17.326z
	 M28.482,4.844v22.883c0,0.282-0.104,0.526-0.31,0.732s-0.45,0.309-0.731,0.309H4.559c-0.282,0-0.525-0.103-0.731-0.309
	s-0.309-0.45-0.309-0.732V4.844c0-0.282,0.103-0.526,0.309-0.731c0.206-0.205,0.45-0.309,0.731-0.309h22.882
	c0.283,0,0.526,0.103,0.731,0.309C28.378,4.319,28.482,4.563,28.482,4.844z"/>
</svg>
