<svg xmlns="http://www.w3.org/2000/svg" xmlns:xlink="http://www.w3.org/1999/xlink" version="1.1" x="0px" y="0px" viewBox="0 0 100 125" enable-background="new 0 0 100 100" xml:space="preserve"><g><path d="M73.604,82.019c-0.129,0-0.259-0.022-0.386-0.07c-11.573-4.327-18.016-16.133-18.632-34.143   c-0.458-13.392,2.484-25.696,2.513-25.818c0.144-0.592,0.739-0.954,1.331-0.812c0.592,0.143,0.955,0.739,0.812,1.331   c-0.115,0.476-11.221,47.667,14.748,57.376c0.57,0.213,0.86,0.849,0.647,1.419C74.471,81.745,74.051,82.019,73.604,82.019z"/></g><g><path d="M64.879,84.153c-8.323,0-16.725-4.066-24.715-12.048C32.038,63.987,27.26,54.83,27.061,54.444   c-0.28-0.541-0.068-1.206,0.473-1.485c0.541-0.28,1.206-0.067,1.486,0.472c0.188,0.364,19.087,36.209,44.205,27.001   c0.572-0.21,1.205,0.083,1.415,0.655c0.21,0.572-0.084,1.205-0.655,1.415C70.977,83.605,67.933,84.153,64.879,84.153z"/></g><g><path d="M56.899,20.065c0,0-6.364-1.855,2.078-12.361C58.977,7.704,68.234,20.886,56.899,20.065z"/></g><g><path d="M60.165,25.813c0,0-2.836-5.992,10.626-6.649C70.791,19.165,67.074,34.837,60.165,25.813z"/></g><g><path d="M58.752,36.145c0,0-2.836-5.992,10.626-6.649C69.378,29.497,65.661,45.169,58.752,36.145z"/></g><g><path d="M58.008,47.499c0,0-2.836-5.992,10.626-6.649C68.633,40.85,64.916,56.523,58.008,47.499z"/></g><g><path d="M54.963,25.694c0,0,3.594-5.571-9.666-7.979C45.297,17.715,46.935,33.739,54.963,25.694z"/></g><g><path d="M53.551,36.026c0,0,3.594-5.571-9.666-7.979C43.884,28.047,45.523,44.07,53.551,36.026z"/></g><g><path d="M53.541,47.38c0,0,3.594-5.571-9.666-7.979C43.875,39.4,45.513,55.424,53.541,47.38z"/></g><g><path d="M25.05,52.06c0,0-6.237,2.248-5.599-11.215C19.452,40.845,34.695,46.049,25.05,52.06z"/></g><g><path d="M31.81,54.783c0,0-5.82-3.174,4.674-11.63C36.483,43.152,42.707,58.009,31.81,54.783z"/></g><g><path d="M37.486,63.23c0,0-5.82-3.174,4.674-11.63C42.16,51.6,48.384,66.456,37.486,63.23z"/></g><g><path d="M44.305,71.375c0,0-5.82-3.174,4.674-11.63C48.979,59.745,55.202,74.601,44.305,71.375z"/></g><g><path d="M26.8,57.749c0,0-0.375-7.354-12.511-1.493C14.289,56.257,25.048,68.978,26.8,57.749z"/></g><g><path d="M32.477,66.197c0,0-0.375-6.619-12.511-0.758C19.966,65.439,30.725,77.426,32.477,66.197z"/></g><g><path d="M40.625,74.644c0,0-0.375-6.619-12.511-0.758C28.113,73.886,38.873,85.873,40.625,74.644z"/></g><text x="0" y="115" fill="#000000" font-size="5px" font-weight="bold" font-family="'Helvetica Neue', Helvetica, Arial-Unicode, Arial, Sans-serif">Created by Elena Rimeikaite</text><text x="0" y="120" fill="#000000" font-size="5px" font-weight="bold" font-family="'Helvetica Neue', Helvetica, Arial-Unicode, Arial, Sans-serif">from the Noun Project</text></svg>