<svg xmlns="http://www.w3.org/2000/svg" xmlns:xlink="http://www.w3.org/1999/xlink" version="1.1" x="0px" y="0px" viewBox="0 0 100 125" style="enable-background:new 0 0 100 100;" xml:space="preserve"><g><g><g><path d="M53.6,20c0,0-1.9,0.9-2.4,2.7c-0.5,1.8,0.7,3.6,0.7,3.6s1.9-0.9,2.4-2.7S53.6,20,53.6,20z"/><path d="M57.4,25.1c0,0-2.3,0.1-3.5,1.7c-1.2,1.6-0.7,3.8-0.7,3.8s2.3-0.1,3.5-1.7C57.9,27.3,57.4,25.1,57.4,25.1z"/><path d="M55.6,31.9c0,0-2.4,0.3-3.6,2.1c-1.2,1.8-0.5,4.1-0.5,4.1s2.4-0.3,3.6-2.1C56.3,34.3,55.6,31.9,55.6,31.9z"/><path d="M54.7,39.5c0,0-2.6,0.5-3.7,2.5c-1.1,2-0.2,4.4-0.2,4.4s2.6-0.5,3.7-2.5C55.6,41.9,54.7,39.5,54.7,39.5z"/><path d="M54.5,47.3c0,0-2.7,0.8-3.7,3c-1,2.2,0.2,4.7,0.2,4.7s2.7-0.8,3.7-3C55.7,49.8,54.5,47.3,54.5,47.3z"/><path d="M55.9,55.5c0,0-2.8,1-3.7,3.4c-0.9,2.4,0.5,5,0.5,5s2.8-1,3.7-3.4C57.3,58.1,55.9,55.5,55.9,55.5z"/><path d="M47.5,23.8c0,0,1.9,1.2,2.2,3.2s-1.2,3.7-1.2,3.7s-1.9-1.2-2.2-3.2S47.5,23.8,47.5,23.8z"/><path d="M45.2,30.9c0,0,2.2,1.1,2.7,3.2c0.5,2.1-1,4.1-1,4.1s-2.2-1.1-2.7-3.2C43.7,32.9,45.2,30.9,45.2,30.9z"/><path d="M43.6,38.8c0,0,2.4,1,3.1,3.2s-0.6,4.4-0.6,4.4s-2.4-1-3.1-3.2C42.2,41.1,43.6,38.8,43.6,38.8z"/><path d="M43.1,47.3c0,0,2.7,0.8,3.6,3S46.5,55,46.5,55s-2.7-0.8-3.6-3C41.9,49.8,43.1,47.3,43.1,47.3z"/><path d="M43.2,56.4c0,0,2.9,0.4,4.3,2.5s0.6,5,0.6,5s-2.9-0.4-4.3-2.5C42.3,59.2,43.2,56.4,43.2,56.4z"/><path d="M56.8,80c-0.2,0-0.4-0.1-0.5-0.3c-0.6-1.1-1.3-2.2-1.8-3.4c-4.4-8.8-6.7-18.3-6.7-28.2c0-7.1,1.2-14,3.5-20.6     c0.1-0.3,0.4-0.5,0.7-0.4c0.3,0.1,0.5,0.4,0.4,0.7C50.1,34.3,49,41.2,49,48.1c0,9.7,2.2,19.1,6.5,27.7c0.6,1.1,1.2,2.2,1.8,3.3     c0.2,0.3,0.1,0.6-0.2,0.8C57,80,56.9,80,56.8,80z"/></g></g></g><text x="0" y="115" fill="#000000" font-size="5px" font-weight="bold" font-family="'Helvetica Neue', Helvetica, Arial-Unicode, Arial, Sans-serif">Created by Juan Manuel Corredor</text><text x="0" y="120" fill="#000000" font-size="5px" font-weight="bold" font-family="'Helvetica Neue', Helvetica, Arial-Unicode, Arial, Sans-serif">from the Noun Project</text></svg>