<svg xmlns="http://www.w3.org/2000/svg" width="24.963" height="24.963" viewBox="3.519 3.804 24.963 24.963"><path fill="#FFF" d="M14.96 23.566V6.925a.509.509 0 0 0-.146-.374.503.503 0 0 0-.374-.146H6.639a.509.509 0 0 0-.374.146.503.503 0 0 0-.146.374v16.642c0 .152.049.276.146.375a.503.503 0 0 0 .374.146h7.801a.509.509 0 0 0 .374-.146.508.508 0 0 0 .146-.376zm10.921-6.24V6.925a.5.5 0 0 0-.519-.52h-7.801a.513.513 0 0 0-.375.146.503.503 0 0 0-.146.374v10.401a.51.51 0 0 0 .146.374.507.507 0 0 0 .375.146h7.801a.5.5 0 0 0 .519-.52zm2.601-12.482v22.883c0 .282-.104.526-.31.732s-.45.309-.731.309H4.559c-.282 0-.525-.103-.731-.309s-.309-.45-.309-.732V4.844c0-.282.103-.526.309-.731.206-.205.45-.309.731-.309h22.882c.283 0 .526.103.731.309a1 1 0 0 1 .31.731z"/></svg>